<svg width="19" height="17" viewBox="0 0 19 17" fill="none" xmlns="http://www.w3.org/2000/svg">
<path fill-rule="evenodd" clip-rule="evenodd" d="M19 8.5C19 10.7543 17.9991 12.9163 16.2175 14.5104C14.4359 16.1045 12.0196 17 9.5 17C6.98044 17 4.56408 16.1045 2.78249 14.5104C1.00089 12.9163 0 10.7543 0 8.5C0 6.24566 1.00089 4.08365 2.78249 2.48959C4.56408 0.895533 6.98044 0 9.5 0C12.0196 0 14.4359 0.895533 16.2175 2.48959C17.9991 4.08365 19 6.24566 19 8.5V8.5ZM14.0766 5.15738C14.1881 5.05762 14.2507 4.92232 14.2507 4.78125C14.2507 4.64018 14.1881 4.50488 14.0766 4.40512C13.9651 4.30537 13.8139 4.24933 13.6562 4.24933C13.4986 4.24933 13.3474 4.30537 13.2359 4.40512L9.5 7.74881L5.76413 4.40512C5.70892 4.35573 5.64338 4.31655 5.57126 4.28982C5.49913 4.26309 5.42182 4.24933 5.34375 4.24933C5.26568 4.24933 5.18837 4.26309 5.11624 4.28982C5.04412 4.31655 4.97858 4.35573 4.92337 4.40512C4.86817 4.45452 4.82438 4.51316 4.7945 4.57769C4.76463 4.64223 4.74925 4.7114 4.74925 4.78125C4.74925 4.8511 4.76463 4.92027 4.7945 4.98481C4.82438 5.04934 4.86817 5.10798 4.92337 5.15738L8.66044 8.5L4.92337 11.8426C4.81188 11.9424 4.74925 12.0777 4.74925 12.2188C4.74925 12.3598 4.81188 12.4951 4.92337 12.5949C5.03487 12.6946 5.18608 12.7507 5.34375 12.7507C5.50142 12.7507 5.65263 12.6946 5.76413 12.5949L9.5 9.25119L13.2359 12.5949C13.2911 12.6443 13.3566 12.6834 13.4287 12.7102C13.5009 12.7369 13.5782 12.7507 13.6562 12.7507C13.7343 12.7507 13.8116 12.7369 13.8838 12.7102C13.9559 12.6834 14.0214 12.6443 14.0766 12.5949C14.1318 12.5455 14.1756 12.4868 14.2055 12.4223C14.2354 12.3578 14.2507 12.2886 14.2507 12.2188C14.2507 12.1489 14.2354 12.0797 14.2055 12.0152C14.1756 11.9507 14.1318 11.892 14.0766 11.8426L10.3396 8.5L14.0766 5.15738V5.15738Z" fill="#1D6D8A"/>
</svg>
