<svg width="29" height="29" viewBox="0 0 29 29" fill="none" xmlns="http://www.w3.org/2000/svg">
<path d="M14.5016 1.24148e-06C6.48944 -0.00331411 0 6.63403 0 14.8263C0 21.3045 4.05955 26.8113 9.7131 28.8336C10.4745 29.0292 10.3578 28.4756 10.3578 28.0976V25.5282C5.96135 26.0554 5.78315 23.0782 5.48833 22.5809C4.89219 21.5399 3.48285 21.2746 3.90403 20.7773C4.90515 20.2502 5.92571 20.9099 7.10826 22.6969C7.96358 23.9932 9.63211 23.7744 10.4777 23.5589C10.6624 22.7798 11.0576 22.0836 11.6019 21.5432C7.0467 20.7077 5.14814 17.8631 5.14814 14.4815C5.14814 12.8404 5.67624 11.3319 6.71299 10.1151C6.05206 8.10936 6.77455 6.392 6.87175 6.13672C8.75411 5.96432 10.711 7.51591 10.8633 7.63858C11.9324 7.34351 13.1538 7.18769 14.5211 7.18769C15.8948 7.18769 17.1194 7.35014 18.1983 7.64852C18.5644 7.3634 20.3787 6.03063 22.1283 6.19308C22.2222 6.44837 22.9285 8.12594 22.3064 10.1052C23.3562 11.3253 23.8907 12.847 23.8907 14.4914C23.8907 17.8797 21.9792 20.7276 17.411 21.5498C17.8023 21.9436 18.113 22.4132 18.3249 22.9312C18.5369 23.4492 18.6458 24.0052 18.6454 24.5668V28.2966C18.6713 28.5949 18.6454 28.89 19.1314 28.89C24.8692 26.9107 29 21.3641 29 14.8296C29 6.63403 22.5073 1.24148e-06 14.5016 1.24148e-06V1.24148e-06Z" fill="#BDD4DD"/>
</svg>
