<svg width="21" height="19" viewBox="0 0 21 19" fill="none" xmlns="http://www.w3.org/2000/svg">
<path d="M19.7578 3.7172C19.4437 2.98979 18.9907 2.33062 18.4242 1.77658C17.8573 1.22089 17.189 0.779292 16.4555 0.475798C15.6949 0.159844 14.8791 -0.00187919 14.0555 1.64739e-05C12.9 1.64739e-05 11.7727 0.316423 10.793 0.914079C10.5586 1.05705 10.3359 1.21408 10.125 1.38517C9.91406 1.21408 9.69141 1.05705 9.45703 0.914079C8.47734 0.316423 7.35 1.64739e-05 6.19453 1.64739e-05C5.3625 1.64739e-05 4.55625 0.159392 3.79453 0.475798C3.05859 0.780485 2.39531 1.21877 1.82578 1.77658C1.25859 2.32999 0.805495 2.98932 0.492188 3.7172C0.166406 4.47424 0 5.27814 0 6.10549C0 6.88595 0.159375 7.69923 0.475781 8.52658C0.740625 9.21798 1.12031 9.93517 1.60547 10.6594C2.37422 11.8055 3.43125 13.0008 4.74375 14.2125C6.91875 16.2211 9.07266 17.6086 9.16406 17.6649L9.71953 18.0211C9.96563 18.1781 10.282 18.1781 10.5281 18.0211L11.0836 17.6649C11.175 17.6063 13.3266 16.2211 15.5039 14.2125C16.8164 13.0008 17.8734 11.8055 18.6422 10.6594C19.1273 9.93517 19.5094 9.21798 19.7719 8.52658C20.0883 7.69923 20.2477 6.88595 20.2477 6.10549C20.25 5.27814 20.0836 4.47424 19.7578 3.7172V3.7172Z" fill="#BDD4DD"/>
</svg>
