<svg width="30" height="29" viewBox="0 0 30 29" fill="none" xmlns="http://www.w3.org/2000/svg">
<path d="M15.0002 9.6835C12.4197 9.6835 10.3138 11.8479 10.3138 14.5C10.3138 17.1521 12.4197 19.3165 15.0002 19.3165C17.5806 19.3165 19.6865 17.1521 19.6865 14.5C19.6865 11.8479 17.5806 9.6835 15.0002 9.6835ZM29.0556 14.5C29.0556 12.5055 29.0732 10.529 28.9642 8.53809C28.8552 6.22559 28.342 4.17324 26.6967 2.48223C25.0478 0.787598 23.0545 0.263672 20.8045 0.151661C18.8638 0.0396489 16.9408 0.0577154 15.0037 0.0577154C13.0631 0.0577154 11.14 0.0396489 9.2029 0.151661C6.9529 0.263672 4.95603 0.791211 3.31071 2.48223C1.66189 4.17686 1.15212 6.22559 1.04314 8.53809C0.934151 10.5326 0.951729 12.5091 0.951729 14.5C0.951729 16.4909 0.934151 18.471 1.04314 20.4619C1.15212 22.7744 1.6654 24.8268 3.31071 26.5178C4.95954 28.2124 6.9529 28.7363 9.2029 28.8483C11.1435 28.9603 13.0666 28.9423 15.0037 28.9423C16.9443 28.9423 18.8674 28.9603 20.8045 28.8483C23.0545 28.7363 25.0513 28.2088 26.6967 26.5178C28.3455 24.8231 28.8552 22.7744 28.9642 20.4619C29.0767 18.471 29.0556 16.4945 29.0556 14.5V14.5ZM15.0002 21.9108C11.0099 21.9108 7.78962 18.6011 7.78962 14.5C7.78962 10.3989 11.0099 7.08916 15.0002 7.08916C18.9904 7.08916 22.2107 10.3989 22.2107 14.5C22.2107 18.6011 18.9904 21.9108 15.0002 21.9108ZM22.506 8.51641C21.5744 8.51641 20.822 7.74316 20.822 6.78564C20.822 5.82812 21.5744 5.05488 22.506 5.05488C23.4377 5.05488 24.19 5.82812 24.19 6.78564C24.1903 7.01301 24.1469 7.2382 24.0624 7.44832C23.9779 7.65843 23.8538 7.84934 23.6974 8.01011C23.541 8.17089 23.3552 8.29836 23.1508 8.38524C22.9464 8.47212 22.7272 8.51669 22.506 8.51641V8.51641Z" fill="#BDD4DD"/>
</svg>
