<svg width="29" height="29" viewBox="0 0 29 29" fill="none" xmlns="http://www.w3.org/2000/svg">
<path d="M5.50851 0C2.47926 0 0 2.548 0 5.66136V23.2296C0 26.3429 2.4792 28.89 5.50851 28.89H22.6024C25.6317 28.89 28.11 26.3429 28.11 23.2296V5.66136C28.11 2.54806 25.6317 0 22.6024 0H5.50851ZM6.89398 4.76743C8.34644 4.76743 9.2411 5.7474 9.26871 7.03556C9.26871 8.29529 8.34639 9.3028 6.86589 9.3028H6.83864C5.41382 9.3028 4.4929 8.29534 4.4929 7.03556C4.4929 5.74743 5.44172 4.76743 6.89398 4.76743ZM19.4107 10.7881C22.204 10.7881 24.298 12.6646 24.298 16.6969V24.2245H20.0529V17.2016C20.0529 15.4368 19.4385 14.2328 17.9022 14.2328C16.7294 14.2328 16.0303 15.0443 15.7234 15.8282C15.6113 16.1087 15.5837 16.5004 15.5837 16.8928V24.2245H11.3386C11.3386 24.2245 11.3943 12.3278 11.3386 11.096H15.5846V12.9551C16.1487 12.0606 17.1578 10.7881 19.4107 10.7881ZM4.7433 11.097H8.98845V24.2246H4.7433V11.097Z" fill="#BDD4DD"/>
</svg>
